PathFileType	4	(X/Y/Z)	 s02c0001.trc
DataRate	CameraRate	NumFrames	NumMarkers	Units	OrigDataRate	OrigDataStartFrame	OrigNumFrames
200	200	6	49	mm	200	751	2000
Frame#	Time	racr			lacr			c7			jug			rlel			rdr			llel			ldr			s2			lic			ric			lasi			rasi			rpsi			lpsi			rgt			lgt			rth1			rth2			rth3			rth4			rlfc			rmfc			rsh1			rsh2			rsh3			rsh4			rlmal			rmmal			rcal			rtoe			rmt5			rmt1			lth1			lth2			lth4			lth3			llfc			lmfc			lsh1			lsh2			lsh3			lsh4			llmal			lmmal			lcal			ltoe			lmt1			lmt5			
		X1	Y1	Z1	X2	Y2	Z2	X3	Y3	Z3	X4	Y4	Z4	X5	Y5	Z5	X6	Y6	Z6	X7	Y7	Z7	X8	Y8	Z8	X9	Y9	Z9	X10	Y10	Z10	X11	Y11	Z11	X12	Y12	Z12	X13	Y13	Z13	X14	Y14	Z14	X15	Y15	Z15	X16	Y16	Z16	X17	Y17	Z17	X18	Y18	Z18	X19	Y19	Z19	X20	Y20	Z20	X21	Y21	Z21	X22	Y22	Z22	X23	Y23	Z23	X24	Y24	Z24	X25	Y25	Z25	X26	Y26	Z26	X27	Y27	Z27	X28	Y28	Z28	X29	Y29	Z29	X30	Y30	Z30	X31	Y31	Z31	X32	Y32	Z32	X33	Y33	Z33	X34	Y34	Z34	X35	Y35	Z35	X36	Y36	Z36	X37	Y37	Z37	X38	Y38	Z38	X39	Y39	Z39	X40	Y40	Z40	X41	Y41	Z41	X42	Y42	Z42	X43	Y43	Z43	X44	Y44	Z44	X45	Y45	Z45	X46	Y46	Z46	X47	Y47	Z47	X48	Y48	Z48	X49	Y49	Z49	
751	3.7550	569.210227	1430.890879	563.924763	594.622908	1422.797908	160.491085	547.378315	1480.177740	356.541747	651.331369	1382.826190	364.208379	538.546377	1145.317196	634.465251	632.366762	1019.853448	778.367856	568.190339	1114.191646	127.142006	741.559381	1039.354201	20.681828	478.564762	974.237548	363.764623	636.896130	1017.648009	228.156622	604.468343	1020.533190	513.958885	683.317430	968.223308	260.219582	653.270799	971.586992	494.321177	488.454896	1000.436074	408.413805	499.958968	996.438538	323.889688	554.004534	886.602815	538.544920	569.469729	886.257397	204.939765	589.063175	802.121869	551.374872	606.705723	714.352838	548.644561	580.368559	633.075858	558.304771	639.926487	712.177503	530.556091	559.847491	499.300204	515.199322	563.102652	484.343857	411.030133	530.359003	397.979627	532.582471	544.392490	311.329310	517.351132	514.811000	230.170930	513.757398	564.685141	313.574537	483.595784	503.217770	101.266797	499.446818	515.129376	114.588703	421.569256	451.182583	53.659482	442.766712	726.955906	86.590462	498.849276	615.367772	48.258208	537.604299	657.232560	71.465326	436.084114	597.665241	759.789373	187.685786	607.366702	672.891933	194.155679	641.400976	670.128111	209.861648	570.439415	592.694983	203.270096	562.894266	495.044691	224.065106	559.356274	469.126464	322.022715	536.886215	399.461540	200.061306	555.169740	315.848587	215.200358	529.104454	228.945821	214.313779	574.743167	318.235994	250.347341	518.906142	114.178134	231.619504	541.780159	118.709669	309.739491	468.761275	58.354828	277.555209	751.459455	81.820504	249.386524	674.164427	70.407096	302.644183	646.782888	46.358861	196.253384	
752	3.7600	569.239365	1430.892719	563.953888	594.626459	1422.798319	160.521302	547.410047	1480.171246	356.544903	651.346746	1382.820527	364.239139	538.499244	1145.285214	634.444502	632.328611	1019.830159	778.358396	568.212329	1114.188072	127.153080	741.554517	1039.370770	20.678848	478.560745	974.241076	363.775023	636.889449	1017.663988	228.162318	604.474040	1020.531662	513.952179	682.964397	968.144739	259.758352	653.282879	971.587349	494.334991	488.457363	1000.427242	408.423752	499.966291	996.438717	323.910476	554.004661	886.603399	538.543645	569.475189	886.266628	204.938041	589.083851	802.131885	551.382988	606.716066	714.346593	548.658080	580.378655	633.076606	558.309943	639.943421	712.175086	530.577145	559.837483	499.304330	515.205993	563.133682	484.350042	411.039586	530.372798	397.970721	532.593667	544.390108	311.332816	517.363238	514.838438	230.181913	513.761925	564.668355	313.568618	483.577752	503.217996	101.270817	499.447366	515.120285	114.577136	421.564495	451.179705	53.654317	442.768236	726.967049	86.573730	498.847700	615.391981	48.255579	537.594711	657.248757	71.467843	436.089556	597.675289	759.791234	187.701604	607.391255	672.916654	194.141258	641.409770	670.132399	209.867464	570.449036	592.686140	203.287669	562.888009	495.038303	224.075304	559.347747	469.121031	322.027800	536.893689	399.462688	200.072486	555.188105	315.848584	215.212348	529.191728	228.911582	214.325551	574.757503	318.239734	250.350048	518.919617	114.174510	231.617082	541.796829	118.694242	309.719152	468.770646	58.346604	277.575390	751.491902	81.826932	249.395664	674.182924	70.401373	302.645096	646.776463	46.369034	196.256604	
753	3.7650	569.250323	1430.883877	563.972098	594.642166	1422.799784	160.530310	547.424170	1480.183073	356.556993	651.346841	1382.813671	364.237483	538.512375	1145.284129	634.459148	632.318914	1019.800774	778.357943	568.208871	1114.202977	127.165738	741.551983	1039.390197	20.660931	478.563327	974.247998	363.776367	636.873275	1017.667822	228.176780	604.490894	1020.533858	513.968864	683.338772	968.226698	260.235665	653.289987	971.582749	494.341092	488.466584	1000.443945	408.431092	499.966346	996.448647	323.913030	554.031080	886.616284	538.558857	569.474471	886.275511	204.939057	589.079949	802.112785	551.393511	606.735010	714.347094	548.649672	580.380057	633.074706	558.310442	639.960768	712.179495	530.588250	559.847109	499.301443	515.203528	563.141609	484.368626	411.052855	530.384950	397.978137	532.591915	544.392578	311.330007	517.351277	514.813119	230.192628	513.771317	564.679983	313.575916	483.575908	503.220427	101.274724	499.446928	516.210528	114.120162	421.371929	451.184433	53.657428	442.758936	726.967912	86.568495	498.820732	615.389130	48.283010	537.595559	657.261981	71.447179	436.083515	597.677077	759.784680	187.703271	607.387343	672.924011	194.134791	641.407152	670.134680	209.864778	570.474181	592.688768	203.288956	562.896924	495.038376	224.068613	559.370363	469.127280	322.013565	536.897979	399.443008	200.079610	555.190532	315.852490	215.204650	529.204674	228.928984	214.325258	574.755586	318.225569	250.348998	518.920494	114.174789	231.621088	541.779762	118.710304	309.739406	468.763475	58.363273	277.561948	751.445270	81.818577	249.394127	674.183046	70.402936	302.631503	646.780230	46.388810	196.238741	
754	3.7700	569.276744	1430.870924	563.999867	594.655155	1422.807434	160.528101	547.432218	1480.172639	356.578458	651.344001	1382.819377	364.253069	538.516683	1145.270235	634.464184	632.300346	1019.793120	778.383073	568.210937	1114.214739	127.164728	741.558618	1039.389050	20.668781	478.583885	974.245543	363.786211	636.900626	1017.658966	228.191549	604.498331	1020.527660	513.966901	683.348332	968.226294	260.232267	653.289424	971.583453	494.345459	488.487010	1000.428228	408.440729	499.980480	996.430367	323.917228	554.036222	886.613958	538.562882	569.474849	886.262775	204.955918	589.091828	802.126473	551.400707	606.754425	714.342971	548.666369	580.393421	633.072695	558.325786	639.959153	712.180137	530.592633	559.841978	499.308434	515.211091	563.141354	484.373954	411.053516	530.390887	397.970931	532.608890	544.377328	311.339047	517.359531	514.838756	230.177188	513.774229	564.691230	313.573678	483.603319	503.226362	101.278359	499.461143	515.130487	114.593454	421.577377	451.179688	53.654337	442.768265	726.959300	86.592127	498.833707	615.363351	48.322519	537.562958	657.252266	71.442466	436.091881	597.677944	759.800752	187.709088	607.394396	672.912365	194.159979	641.429482	670.131809	209.865251	570.498391	592.682826	203.282865	562.913303	495.040416	224.076446	559.382020	469.135666	322.032173	536.909059	399.455206	200.074526	555.196053	315.854456	215.191048	529.191726	228.911585	214.325555	574.757596	318.232277	250.342279	518.922627	114.170522	231.616088	541.778531	118.709845	309.737357	468.767616	58.339372	277.566925	751.463203	81.833220	249.399216	674.171557	70.394766	302.652337	646.761699	46.377074	196.255706	
755	3.7750	569.257763	1430.862658	564.008902	594.655269	1422.801654	160.558618	547.440549	1480.183396	356.566185	651.356328	1382.800258	364.276616	538.514375	1145.263965	634.461759	632.270002	1019.765372	778.367916	568.219247	1114.213810	127.163200	741.564400	1039.397930	20.651467	478.589369	974.235625	363.786522	636.902770	1017.660401	228.201741	604.498258	1020.527683	513.966942	683.357010	968.225346	260.243740	653.307340	971.577827	494.353153	488.489638	1000.446246	408.446801	499.981504	996.444597	323.918554	554.054802	886.610850	538.570341	569.489818	886.258765	204.949763	589.102816	802.121008	551.412431	606.752496	714.352308	548.664570	580.393770	633.071487	558.331291	639.968311	712.173970	530.595734	559.861292	499.305302	515.223183	563.145827	484.349704	411.051824	530.385063	397.956074	532.595797	544.375502	311.307816	517.380193	514.834652	230.175412	513.781910	564.687042	313.566873	483.602704	503.213926	101.262693	499.450508	516.219689	114.112984	421.365321	451.179191	53.647915	442.774975	726.972876	86.598545	498.828733	615.391033	48.344738	537.538486	657.246671	71.457742	436.087395	597.700064	759.795663	187.706418	607.394397	672.912361	194.159976	641.445145	670.122340	209.884438	570.498827	592.698785	203.272830	562.932507	495.038262	224.073717	559.384827	469.131253	322.030977	536.917927	399.454229	200.079310	555.201723	315.856388	215.204397	529.183141	228.917489	214.323469	574.760070	318.210773	250.342944	518.919054	114.173866	231.617117	541.787675	118.693742	309.744344	468.762890	58.369302	277.593409	751.471278	81.824213	249.397282	674.173349	70.399864	302.644928	646.753880	46.375349	196.238531	
756	3.7800	569.244887	1430.856040	563.992960	594.659796	1422.805259	160.568080	547.437968	1480.173753	356.602855	651.348839	1382.820368	364.286834	538.520310	1145.267214	634.475076	632.234673	1019.741961	778.382160	568.245130	1114.217672	127.182070	741.561579	1039.401807	20.645504	478.587007	974.249317	363.789596	636.901528	1017.666062	228.198724	604.507851	1020.536013	513.985495	683.361914	968.225881	260.251349	653.311820	971.576537	494.371339	488.503050	1000.431867	408.454998	499.980942	996.439077	323.952058	554.078924	886.600747	538.586718	569.502721	886.274224	204.963227	589.116544	802.122454	551.412361	606.762446	714.359456	548.689356	580.415798	633.068489	558.327418	639.991899	712.170002	530.618485	559.863119	499.298959	515.229620	563.142479	484.343787	411.054586	530.400374	397.978285	532.621096	544.407422	311.316707	517.377067	514.840968	230.182921	513.778047	564.658009	313.564054	483.591156	503.204811	101.278517	499.459566	515.137509	114.605024	421.589812	451.178637	53.658855	442.769781	726.974025	86.578192	498.836446	615.375443	48.276644	537.607593	657.260205	71.451014	436.085929	597.704845	759.812121	187.713239	607.422389	672.933120	194.165275	641.437124	670.120176	209.884716	570.503054	592.682975	203.290997	562.920000	495.048527	224.080596	559.380959	469.117134	322.038140	536.917160	399.464420	200.066355	555.197261	315.833622	215.208353	529.175994	228.921569	214.331254	574.760484	318.232671	250.344139	518.924598	114.170513	231.620161	541.780509	118.707966	309.736919	468.783071	58.351171	277.570484	751.459414	81.820506	249.386502	674.209414	70.414615	302.642187	646.746851	46.353574	196.241953	
